<?xml version="1.0" encoding="utf-8"?><svg viewBox="0 0 22 22" xmlns="http://www.w3.org/2000/svg" xmlns:xlink="http://www.w3.org/1999/xlink"><style>:root>svg{display:none}:root>svg:target{display:block}</style><svg viewBox="0 0 14 15" id="checked" xmlns="http://www.w3.org/2000/svg"><g clip-path="url(#aa)"><path d="M0 7.917l4.794 4.804L14 3.524l-1.322-1.303-7.884 7.875-3.49-3.491L0 7.917z"/></g><defs><clipPath id="aa"><path transform="translate(0 .47)" d="M0 0h14v14H0z"/></clipPath></defs></svg><svg viewBox="0 0 22 20" id="heart-icon" xmlns="http://www.w3.org/2000/svg"><path d="M16.156.547c-1.884 0-3.522.863-4.737 2.495a8.05 8.05 0 00-.419.623 8.041 8.041 0 00-.42-.623C9.368 1.41 7.729.547 5.845.547 2.354.547 0 3.35 0 6.788c0 4.486 4.264 7.31 10.45 12.466a.858.858 0 001.1 0C17.735 14.1 22 11.274 22 6.788 22 3.353 19.649.547 16.156.547zM11 17.477c-5.696-4.713-9.281-7.21-9.281-10.689 0-2.247 1.417-4.522 4.125-4.522 1.323 0 2.443.593 3.328 1.762a6.744 6.744 0 011.003 1.915.86.86 0 001.65-.002c.011-.037 1.097-3.675 4.331-3.675 2.708 0 4.125 2.275 4.125 4.522 0 3.482-3.603 5.992-9.281 10.689z"/></svg><svg viewBox="0 0 14 15" id="multiply" xmlns="http://www.w3.org/2000/svg"><path d="M13 2.514l-1.043-1.043L7 6.427 2.043 1.471 1 2.514l4.957 4.957L1 12.427l1.043 1.044L7 8.514l4.957 4.957L13 12.427 8.043 7.471 13 2.514z"/></svg><svg viewBox="0 0 20 20" id="search-icon" xmlns="http://www.w3.org/2000/svg"><path d="M18.9 17.6l-2.593-2.586a8.727 8.727 0 10-1.293 1.293l2.585 2.594a.917.917 0 001.302 0 .918.918 0 000-1.302zM2.668 9.541a6.875 6.875 0 1113.75 0 6.875 6.875 0 01-13.75 0z"/></svg><svg viewBox="0 0 20 22" id="shopping-bag" xmlns="http://www.w3.org/2000/svg"><path d="M18.422 5.156h-2.619A5.852 5.852 0 0010 0a5.852 5.852 0 00-5.803 5.156H1.578a.86.86 0 00-.86.86V21.14a.86.86 0 00.86.859h16.844a.86.86 0 00.86-.86V6.017a.86.86 0 00-.86-.86zM10 1.72a4.13 4.13 0 014.067 3.437H5.933A4.131 4.131 0 0110 1.72zm7.563 18.562H2.438V6.875h1.718v2.578a.86.86 0 101.719 0V6.875h8.25v2.578a.86.86 0 101.719 0V6.875h1.719v13.406z"/></svg></svg>